TITLE ""
FILE "2Q_j_1342-1355.mp3" MP3
  TRACK 01 AUDIO
    TITLE "2Q_j_1342-1355_01"
    INDEX 01 00:00:00
  TRACK 02 AUDIO
    TITLE "2Q_j_1342-1355_02"
    INDEX 01 00:00:16
  TRACK 03 AUDIO
    TITLE "2Q_j_1342-1355_03"
    INDEX 01 00:02:56
  TRACK 04 AUDIO
    TITLE "2Q_j_1342-1355_04"
    INDEX 01 00:03:26
  TRACK 05 AUDIO
    TITLE "2Q_j_1342-1355_05"
    INDEX 01 00:05:06
  TRACK 06 AUDIO
    TITLE "2Q_j_1342-1355_06"
    INDEX 01 00:05:51
  TRACK 07 AUDIO
    TITLE "2Q_j_1342-1355_07"
    INDEX 01 00:08:65
  TRACK 08 AUDIO
    TITLE "2Q_j_1342-1355_08"
    INDEX 01 00:09:39
  TRACK 09 AUDIO
    TITLE "2Q_j_1342-1355_09"
    INDEX 01 00:10:60
  TRACK 10 AUDIO
    TITLE "2Q_j_1342-1355_10"
    INDEX 01 00:11:30
  TRACK 11 AUDIO
    TITLE "2Q_j_1342-1355_11"
    INDEX 01 00:12:47
  TRACK 12 AUDIO
    TITLE "2Q_j_1342-1355_12"
    INDEX 01 00:13:17
  TRACK 13 AUDIO
    TITLE "2Q_j_1342-1355_13"
    INDEX 01 00:17:15
  TRACK 14 AUDIO
    TITLE "2Q_j_1342-1355_14"
    INDEX 01 00:17:70
  TRACK 15 AUDIO
    TITLE "2Q_j_1342-1355_15"
    INDEX 01 00:19:21
  TRACK 16 AUDIO
    TITLE "2Q_j_1342-1355_16"
    INDEX 01 00:19:66
  TRACK 17 AUDIO
    TITLE "2Q_j_1342-1355_17"
    INDEX 01 00:23:05
  TRACK 18 AUDIO
    TITLE "2Q_j_1342-1355_18"
    INDEX 01 00:23:51
  TRACK 19 AUDIO
    TITLE "2Q_j_1342-1355_19"
    INDEX 01 00:27:15
  TRACK 20 AUDIO
    TITLE "2Q_j_1342-1355_20"
    INDEX 01 00:27:64
  TRACK 21 AUDIO
    TITLE "2Q_j_1342-1355_21"
    INDEX 01 00:29:26
  TRACK 22 AUDIO
    TITLE "2Q_j_1342-1355_22"
    INDEX 01 00:29:73
  TRACK 23 AUDIO
    TITLE "2Q_j_1342-1355_23"
    INDEX 01 00:33:49
  TRACK 24 AUDIO
    TITLE "2Q_j_1342-1355_24"
    INDEX 01 00:34:17
  TRACK 25 AUDIO
    TITLE "2Q_j_1342-1355_25"
    INDEX 01 00:40:04
  TRACK 26 AUDIO
    TITLE "2Q_j_1342-1355_26"
    INDEX 01 00:40:51
  TRACK 27 AUDIO
    TITLE "2Q_j_1342-1355_27"
    INDEX 01 00:42:40
  TRACK 28 AUDIO
    TITLE "2Q_j_1342-1355_28"
    INDEX 01 00:43:12
  TRACK 29 AUDIO
    TITLE "2Q_j_1342-1355_29"
    INDEX 01 00:48:13
  TRACK 30 AUDIO
    TITLE "2Q_j_1342-1355_30"
    INDEX 01 00:48:56
  TRACK 31 AUDIO
    TITLE "2Q_j_1342-1355_31"
    INDEX 01 00:52:62
  TRACK 32 AUDIO
    TITLE "2Q_j_1342-1355_32"
    INDEX 01 00:53:36
  TRACK 33 AUDIO
    TITLE "2Q_j_1342-1355_33"
    INDEX 01 00:55:03
  TRACK 34 AUDIO
    TITLE "2Q_j_1342-1355_34"
    INDEX 01 00:55:49
  TRACK 35 AUDIO
    TITLE "2Q_j_1342-1355_35"
    INDEX 01 01:00:60
  TRACK 36 AUDIO
    TITLE "2Q_j_1342-1355_36"
    INDEX 01 01:01:30
  TRACK 37 AUDIO
    TITLE "2Q_j_1342-1355_37"
    INDEX 01 01:05:55
  TRACK 38 AUDIO
    TITLE "2Q_j_1342-1355_38"
    INDEX 01 01:06:29
  TRACK 39 AUDIO
    TITLE "2Q_j_1342-1355_39"
    INDEX 01 01:08:47
  TRACK 40 AUDIO
    TITLE "2Q_j_1342-1355_40"
    INDEX 01 01:09:19
  TRACK 41 AUDIO
    TITLE "2Q_j_1342-1355_41"
    INDEX 01 01:11:22
  TRACK 42 AUDIO
    TITLE "2Q_j_1342-1355_42"
    INDEX 01 01:11:65
  TRACK 43 AUDIO
    TITLE "2Q_j_1342-1355_43"
    INDEX 01 01:15:69
  TRACK 44 AUDIO
    TITLE "2Q_j_1342-1355_44"
    INDEX 01 01:16:45
  TRACK 45 AUDIO
    TITLE "2Q_j_1342-1355_45"
    INDEX 01 01:18:38
  TRACK 46 AUDIO
    TITLE "2Q_j_1342-1355_46"
    INDEX 01 01:19:10
  TRACK 47 AUDIO
    TITLE "2Q_j_1342-1355_47"
    INDEX 01 01:21:54
  TRACK 48 AUDIO
    TITLE "2Q_j_1342-1355_48"
    INDEX 01 01:22:26
  TRACK 49 AUDIO
    TITLE "2Q_j_1342-1355_49"
    INDEX 01 01:26:65
  TRACK 50 AUDIO
    TITLE "2Q_j_1342-1355_50"
    INDEX 01 01:27:35
  TRACK 51 AUDIO
    TITLE "2Q_j_1342-1355_51"
    INDEX 01 01:28:62
  TRACK 52 AUDIO
    TITLE "2Q_j_1342-1355_52"
    INDEX 01 01:29:34
  TRACK 53 AUDIO
    TITLE "2Q_j_1342-1355_53"
    INDEX 01 01:31:09
  TRACK 54 AUDIO
    TITLE "2Q_j_1342-1355_54"
    INDEX 01 01:31:54
  TRACK 55 AUDIO
    TITLE "2Q_j_1342-1355_55"
    INDEX 01 01:36:08
  TRACK 56 AUDIO
    TITLE "2Q_j_1342-1355_56"
    INDEX 01 01:36:53
  TRACK 57 AUDIO
    TITLE "2Q_j_1342-1355_57"
    INDEX 01 01:38:27
  TRACK 58 AUDIO
    TITLE "2Q_j_1342-1355_58"
    INDEX 01 01:38:72
  TRACK 59 AUDIO
    TITLE "2Q_j_1342-1355_59"
    INDEX 01 01:42:56
  TRACK 60 AUDIO
    TITLE "2Q_j_1342-1355_60"
    INDEX 01 01:43:26
  TRACK 61 AUDIO
    TITLE "2Q_j_1342-1355_61"
    INDEX 01 01:47:49
  TRACK 62 AUDIO
    TITLE "2Q_j_1342-1355_62"
    INDEX 01 01:48:19
  TRACK 63 AUDIO
    TITLE "2Q_j_1342-1355_63"
    INDEX 01 01:50:18
  TRACK 64 AUDIO
    TITLE "2Q_j_1342-1355_64"
    INDEX 01 01:50:63
  TRACK 65 AUDIO
    TITLE "2Q_j_1342-1355_65"
    INDEX 01 01:55:06
  TRACK 66 AUDIO
    TITLE "2Q_j_1342-1355_66"
    INDEX 01 01:55:49
  TRACK 67 AUDIO
    TITLE "2Q_j_1342-1355_67"
    INDEX 01 02:00:72
  TRACK 68 AUDIO
    TITLE "2Q_j_1342-1355_68"
    INDEX 01 02:01:42
  TRACK 69 AUDIO
    TITLE "2Q_j_1342-1355_69"
    INDEX 01 02:03:17
  TRACK 70 AUDIO
    TITLE "2Q_j_1342-1355_70"
    INDEX 01 02:03:62
  TRACK 71 AUDIO
    TITLE "2Q_j_1342-1355_71"
    INDEX 01 02:06:02
  TRACK 72 AUDIO
    TITLE "2Q_j_1342-1355_72"
    INDEX 01 02:06:47
  TRACK 73 AUDIO
    TITLE "2Q_j_1342-1355_73"
    INDEX 01 02:11:01
  TRACK 74 AUDIO
    TITLE "2Q_j_1342-1355_74"
    INDEX 01 02:11:50
  TRACK 75 AUDIO
    TITLE "2Q_j_1342-1355_75"
    INDEX 01 02:12:71
  TRACK 76 AUDIO
    TITLE "2Q_j_1342-1355_76"
    INDEX 01 02:13:43
  TRACK 77 AUDIO
    TITLE "2Q_j_1342-1355_77"
    INDEX 01 02:15:42
  TRACK 78 AUDIO
    TITLE "2Q_j_1342-1355_78"
    INDEX 01 02:16:12
  TRACK 79 AUDIO
    TITLE "2Q_j_1342-1355_79"
    INDEX 01 02:19:36
  TRACK 80 AUDIO
    TITLE "2Q_j_1342-1355_80"
    INDEX 01 02:20:13
  TRACK 81 AUDIO
    TITLE "2Q_j_1342-1355_81"
    INDEX 01 02:21:50
  TRACK 82 AUDIO
    TITLE "2Q_j_1342-1355_82"
    INDEX 01 02:22:18
  TRACK 83 AUDIO
    TITLE "2Q_j_1342-1355_83"
    INDEX 01 02:23:69
  TRACK 84 AUDIO
    TITLE "2Q_j_1342-1355_84"
    INDEX 01 02:24:37
  TRACK 85 AUDIO
    TITLE "2Q_j_1342-1355_85"
    INDEX 01 02:28:23
